<?xml version="1.0" encoding="utf-8"?>
<!-- Generator: Adobe Illustrator 26.3.1, SVG Export Plug-In . SVG Version: 6.00 Build 0)  -->
<svg version="1.1" id="Layer_1" xmlns="http://www.w3.org/2000/svg" xmlns:xlink="http://www.w3.org/1999/xlink" x="0px" y="0px"
	 viewBox="0 0 881.5 636.6" style="enable-background:new 0 0 881.5 636.6;" xml:space="preserve">
<style type="text/css">
	.st0{opacity:0.2;enable-background:new    ;}
	.st1{fill:#E6E6E6;}
	.st2{fill:#E6E8EC;}
	.st3{fill:#AEDBCE;}
	.st4{fill:#3F3D56;}
	.st5{fill:#A09F9F;}
	.st6{fill:none;stroke:#3F3D56;stroke-miterlimit:10;}
	.st7{fill:#FFB6B6;}
	.st8{fill:#769188;}
	.st9{fill:#2F2E41;}
	.st10{fill:#90B2A8;}
</style>
<path class="st0" d="M226.9,371.5c0,0,1.8,37-77.1,82.6c0,0-0.1,0.2,577.8,0c0,0-66-46.9-70.3-99.3"/>
<path class="st1" d="M654.9,345V34.1c7.7-2,13-8.9,13-16.8l0,0c0-9.6-7.8-17.3-17.3-17.3l0,0H234.4C224.8,0,217,7.8,217,17.3
	c0,0,0,0,0,0l0,0c0,9.6,7.8,17.3,17.3,17.3l0,0h0l-9.6,310.6l-77.3,99c0,0-0.7,0,577.8,0C725.2,444.3,724.8,445.3,654.9,345z"/>
<polygon class="st0" points="234.4,34.7 654.9,46.9 655,33.9 "/>
<path class="st2" d="M438.7,76.5h20.2c0.8,0,1.5,0.7,1.5,1.5v1.7c0,0.8-0.7,1.5-1.5,1.5h-20.2c-0.8,0-1.5-0.7-1.5-1.5V78
	C437.2,77.2,437.9,76.5,438.7,76.5z"/>
<circle class="st2" cx="466.6" cy="78.9" r="2.7"/>
<rect x="393" y="270.7" class="st1" width="121" height="15.7"/>
<rect x="393" y="298.6" class="st1" width="121" height="15.7"/>
<rect x="393" y="326.6" class="st1" width="121" height="15.7"/>
<rect x="392.7" y="157.8" class="st1" width="121" height="80.3"/>
<path class="st3" d="M227.1,46.2l-62.1,0.4c0,0-102.2,54.4-30.5,166.9c0,0,29.3-6.9,61.7,17C196.3,230.5,215.2,50.4,227.1,46.2z"/>
<path class="st0" d="M208.7,46.8C197.5,93.2,185,213,185,213c-28.9-21.4-55.4-18.1-60.7-17.2c3.1,6.2,6.6,12.2,10.3,18.1
	c0,0,29.3-6.9,61.7,17c0,0,18.9-180.1,30.8-184.3L208.7,46.8z"/>
<polygon class="st4" points="134.2,104.4 128.8,130.6 61,118.3 61,118.3 59.4,87.4 72.5,87.4 "/>
<polygon class="st0" points="71.4,87.4 61,118.3 61,118.3 59.4,87.4 "/>
<ellipse class="st4" cx="131.9" cy="116" rx="7.7" ry="17.7"/>
<path class="st4" d="M91.8,490.8c-1.3,0-2.4-1.1-2.4-2.4c0,0,0,0,0,0V116c0-1.3,1.1-2.4,2.4-2.4c1.3,0,2.4,1.1,2.4,2.4c0,0,0,0,0,0
	v372.4C94.2,489.7,93.1,490.8,91.8,490.8C91.8,490.8,91.8,490.8,91.8,490.8z"/>
<path class="st4" d="M124.2,556.3c-1.1,0-2.1-0.8-2.3-1.9l-32.4-166c-0.2-1.3,0.6-2.5,1.9-2.8c0.9-0.2,1.9,0.2,2.4,1l85.6,130.6
	c0.7,1.1,0.4,2.5-0.7,3.3c-1.1,0.7-2.5,0.4-3.3-0.7l0,0l-79-120.5l30.1,154.2c0.2,1.3-0.6,2.5-1.9,2.8c0,0,0,0,0,0
	C124.5,556.3,124.3,556.3,124.2,556.3z"/>
<path class="st4" d="M2.4,527C1.1,527,0,526,0,524.7c0-0.5,0.1-0.9,0.4-1.3l89.4-136.5c0.7-1.1,2.2-1.4,3.3-0.7
	c1.1,0.7,1.4,2.2,0.7,3.3L4.3,525.9C3.9,526.6,3.2,527,2.4,527z"/>
<path class="st3" d="M654.4,46.2l62.1,0.4c0,0,102.2,54.4,30.5,166.9c0,0-29.3-6.9-61.7,17C685.2,230.5,666.3,50.4,654.4,46.2z"/>
<path class="st0" d="M672.8,46.8C684,93.2,696.5,213,696.5,213c28.9-21.4,55.4-18.1,60.7-17.2c-3.1,6.2-6.6,12.2-10.3,18.1
	c0,0-29.3-6.9-61.7,17c0,0-18.9-180.1-30.8-184.3L672.8,46.8z"/>
<polygon class="st4" points="747.3,104.4 752.7,130.6 820.5,118.3 820.5,118.3 822.1,87.4 809,87.4 "/>
<polygon class="st0" points="810.1,87.4 820.5,118.3 820.5,118.3 822.1,87.4 "/>
<ellipse class="st4" cx="749.6" cy="116" rx="7.7" ry="17.7"/>
<path class="st4" d="M789.7,490.8c-1.3,0-2.4-1.1-2.4-2.4c0,0,0,0,0,0V116c0-1.3,1.1-2.4,2.4-2.4c1.3,0,2.4,1.1,2.4,2.4v372.4
	C792.1,489.7,791,490.8,789.7,490.8C789.7,490.8,789.7,490.8,789.7,490.8z"/>
<path class="st4" d="M757.3,556.3c-0.2,0-0.3,0-0.5,0c-1.3-0.2-2.1-1.5-1.9-2.8l30.1-154.2l-79,120.5c-0.7,1.1-2.2,1.4-3.3,0.7
	c-1.1-0.7-1.4-2.2-0.7-3.3l0,0l85.6-130.6c0.7-1.1,2.2-1.4,3.3-0.7c0.8,0.5,1.2,1.5,1,2.4l-32.4,166
	C759.4,555.5,758.4,556.3,757.3,556.3z"/>
<path class="st4" d="M879.1,527c-0.8,0-1.5-0.4-2-1.1l-89.4-136.5c-0.7-1.1-0.4-2.5,0.7-3.3c1.1-0.7,2.5-0.4,3.3,0.7l0,0l89.4,136.5
	c0.7,1.1,0.4,2.5-0.7,3.3C880.1,526.9,879.6,527,879.1,527z"/>
<path class="st4" d="M387,327.3l16.9-4.7c0,0,6.6-1.3,2.6-14.2s-12.1-9.3-12.1-9.3l-15,4.4l-5.9,1.8l8.3,11.7l0.7,7.8L387,327.3z"/>
<polygon class="st4" points="354.4,293.2 349.1,314.3 376.2,340.6 378.6,341.2 384.8,339.5 390.1,318.3 384.7,312.7 390.2,311.2 
	378.5,299.9 372.4,301.1 367.5,296.3 370.8,295 371.1,293.7 367.1,290.6 "/>
<polygon class="st5" points="379.8,323 376.3,337 360.1,321.7 364.2,307.5 "/>
<polygon class="st6" points="354.4,293.2 353.7,296.1 380.6,322.4 383,323 389,321.3 389.3,321.3 390.1,318.3 384.7,312.7 
	390.2,311.2 378.5,299.9 372.4,301.1 367.5,296.3 370.8,295 371.1,293.7 367.1,290.6 "/>
<ellipse transform="matrix(0.2429 -0.9701 0.9701 0.2429 -6.3552 577.6321)" class="st5" cx="366.9" cy="292.9" rx="1.5" ry="2.2"/>
<ellipse transform="matrix(0.2429 -0.9701 0.9701 0.2429 -15.3424 611.4172)" class="st5" cx="384" cy="315.5" rx="1.5" ry="2.2"/>
<path class="st7" d="M398.2,353.7l-3.7-12.5c0,0,9.6-22.8-1.5-25s-11.8,21.4-11.8,21.4l4.4,14L398.2,353.7z"/>
<circle class="st7" cx="329.9" cy="300" r="29.3"/>
<path class="st7" d="M339.3,320.7c0,0,1.7,21.5,6,23.2s-46.5,13.8-46.5,13.8l12.9-14.6c0,0,2.6-22.4-3.4-27.5L339.3,320.7z"/>
<path class="st8" d="M380.6,347l11.8-1.5c0,0,14,7.4,14,16.9s8.1,25,8.1,25s5.9,20.6-7.4,22.1s-25-22.1-25-22.1L380.6,347z"/>
<path class="st9" d="M387.2,464.1c0,0,25.8-24.3,33.1-22.8s22.1,3.7,22.1,14.7s-24.3,36.8-24.3,36.8s-18.4,40.5-36.1,42
	c-11.6,1.1-23.2,2.8-34.6,5.2c0,0,8.1,29.5,3.7,37.6s-21.4,17.7-22.8,16.9s-22.1-19.9-30.9-47.1s-14.7-47.9-6.6-49.3
	S387.2,464.1,387.2,464.1z"/>
<path class="st9" d="M440.2,453.8c0,0,5.2-0.7,4.4,11.8s-2.9,57.5-6.6,66.3s-4.4,19.2-2.9,22.8s4.4,9.6-0.7,10.3s-26.5-2.2-28.7-2.9
	s-4.4-13.3-2.9-13.3s5.2-0.7,3.7-5.9s-2.2-5.2,0-6.6s8.1-3.7,6.6-5.2s-2.9-36.1-2.9-36.1L440.2,453.8z"/>
<path class="st9" d="M432.9,562.8c0,0,12.5-3.7,14,4.4c0,0,2.2,12.5-7.4,16.9c-6.2,2.9-12.1,6.4-17.7,10.3c0,0-15.5,5.9-16.2-1.5
	s2.9-33.9,2.9-33.9L432.9,562.8z"/>
<path class="st9" d="M349.6,571.7l-23.6-19.2c0,0,4.4,23.6-1.5,28l-2.7,7.9l7.5,6.2C329.4,594.5,352.6,590.8,349.6,571.7z"/>
<path class="st9" d="M316.5,539.3c0,0,15.5,4.4,13.3,19.9s-5,32.3-5,32.3s-0.8,41.4-11.9,44.3s-14-2.9-14-2.9s-12.6-32.3-8.8-42
	c4.5-11.7,11-24.8,8.8-28.7C296.7,558.2,300.3,537.1,316.5,539.3z"/>
<path class="st10" d="M307.7,336c0,0,5.9,0.7,15.5,2.2s16.2-5.9,21.4-4.4s47.9,11.8,47.9,11.8l-6.6,50.8c0,0,8.1,58.9,6.6,69.2
	s17.7,8.8,6.6,21.4s-30.2,23.6-69.2,19.9s-44.2-2.9-44.2-8.8s8.8-56,5.9-60.4s-8.8-9.6-5.9-14.7s5.9-8.1,1.5-12.5s-6.6-8.8-6.6-11
	S270.1,361,270.1,361s4.4-17.7,9.6-18.4s9.6-4.4,13.3-4.4s5.9,0.7,8.1,0L307.7,336z"/>
<path class="st9" d="M378.3,289.8c-0.4-1.7-2.2-7.4-6-8.8c-2.8-1-7.9,1.1-10.5,0.8l-0.3-0.9c-0.2-1.8-0.7-3.7-1.4-5.4
	c-2.7-7-8.2-12.5-15.1-15.4c-8.4-3.5-21.7-6.4-33.3,2.8c-15.9,12.7-13.1,31.6-11.9,36.9c0.2,0.9,0.4,1.8,0.5,2.6
	c0.7,4.6,2.8,5.2,2.8,5.2s0-0.1-0.1-0.4l14.3,1.4l7.8-1.3c0.1,0.8,0.2,1.2,0.2,1.2c22.6-3.5,35.8-15.4,37.9-17.4
	c1.9,1.2,5.4,3.3,8.8,3.7C376.9,295.4,378.7,291.5,378.3,289.8z M320,301.2l-18.2-0.7c-0.3-5,1-10.8,8.3-11.1
	c7.1-0.3,10.9,5.5,13,10.7L320,301.2z"/>
<ellipse transform="matrix(0.9857 -0.1682 0.1682 0.9857 -38.6878 58.2703)" class="st9" cx="324.6" cy="257.5" rx="3.2" ry="1.2"/>
</svg>
